<svg width="24" height="24" viewBox="0 0 24 24" fill="none" xmlns="http://www.w3.org/2000/svg">
<path d="M12.8182 7.0918V6.27362H11.1819V7.0918H12.8182ZM12.0001 12.0009H11.1819C11.1819 12.4528 11.5482 12.8191 12.0001 12.8191V12.0009ZM16.9091 12.8191H17.7273V11.1827H16.9091V12.8191ZM3.79683 20.9966L3.89892 21.8084L5.52249 21.6042L5.42041 20.7924L3.79683 20.9966ZM4.01217 16.1515L4.23178 15.3634C3.96797 15.2899 3.68488 15.3532 3.47756 15.5321C3.27025 15.7111 3.16621 15.9819 3.20038 16.2536L4.01217 16.1515ZM8.44964 18.2373L9.2378 18.4569L9.67702 16.8806L8.88886 16.661L8.44964 18.2373ZM11.1819 7.0918V12.0009H12.8182V7.0918H11.1819ZM12.0001 12.8191H16.9091V11.1827H12.0001V12.8191ZM5.42041 20.7924L4.82395 16.0494L3.20038 16.2536L3.79683 20.9966L5.42041 20.7924ZM3.79256 16.9397L8.44964 18.2373L8.88886 16.661L4.23178 15.3634L3.79256 16.9397ZM3.28599 16.5285C4.39205 18.6592 6.24043 20.3109 8.4817 21.1712L9.06809 19.6435C7.20037 18.9266 5.66005 17.5502 4.73834 15.7746L3.28599 16.5285ZM8.4817 21.1712C10.723 22.0314 13.2018 22.0408 15.4494 21.1973L14.8745 19.6653C13.0015 20.3681 10.9358 20.3604 9.06809 19.6435L8.4817 21.1712ZM15.4494 21.1973C17.6971 20.3539 19.5579 18.7162 20.6799 16.5938L19.2333 15.829C18.2982 17.5976 16.7476 18.9624 14.8745 19.6653L15.4494 21.1973ZM20.6799 16.5938C21.8019 14.4714 22.1075 12.0115 21.5387 9.67913L19.9489 10.0668C20.4229 12.0104 20.1683 14.0604 19.2333 15.829L20.6799 16.5938ZM21.5387 9.67913C20.97 7.34676 19.5664 5.30359 17.5934 3.93592L16.6612 5.28077C18.3054 6.4205 19.475 8.12314 19.9489 10.0668L21.5387 9.67913ZM17.5934 3.93592C15.6204 2.56825 13.2146 1.97087 10.831 2.25673L11.0258 3.88145C13.0122 3.64323 15.017 4.14105 16.6612 5.28077L17.5934 3.93592ZM10.831 2.25673C8.44734 2.54259 6.25105 3.69187 4.65735 5.48728L5.88113 6.57357C7.20922 5.0774 9.03946 4.11966 11.0258 3.88145L10.831 2.25673ZM4.65735 5.48728C3.06365 7.2827 2.18299 9.5998 2.18188 12.0005L3.81824 12.0013C3.81916 10.0007 4.55305 8.06975 5.88113 6.57357L4.65735 5.48728Z" fill="#000D0B"/>
</svg>
